<svg xmlns="http://www.w3.org/2000/svg" xmlns:xlink="http://www.w3.org/1999/xlink" contentStyleType="text/css" data-diagram-type="ACTIVITY" height="1503px" preserveAspectRatio="none" style="width:1227px;height:1503px;background:#FFFFFF;" version="1.1" viewBox="0 0 1227 1503" width="1227px" zoomAndPan="magnify"><?plantuml 1.2026.6?><defs/><g><g class="title" data-source-line="406"><text fill="#000000" font-family="sans-serif" font-size="14" font-weight="700" lengthAdjust="spacing" textLength="312.1359" x="456.6378" y="34.9659">Calificaci&#243;n mutua y reporte con moderaci&#243;n</text></g><rect fill="#EFF7F0" height="24.5158" style="stroke:#EFF7F0;stroke-width:1;" width="1180.4116" x="20" y="58.8419"/><rect fill="#EFF7F0" height="1423.4783" style="stroke:#EFF7F0;stroke-width:1;" width="309.614" x="20" y="58.8419"/><ellipse cx="175.807" cy="98.3577" fill="#222222" rx="10" ry="10" style="stroke:#222222;stroke-width:1;"/><rect fill="#EFF7F0" height="36.3441" rx="12.5" ry="12.5" style="stroke:#2E6E4E;stroke-width:0.5;" width="275.0258" x="38.2941" y="128.3577"/><text fill="#000000" font-family="sans-serif" font-size="12" lengthAdjust="spacing" textLength="255.0258" x="48.2941" y="151.1858">Transacci&#243;n completada (status = completed)</text><rect fill="#EFF7F0" height="52.6882" rx="12.5" ry="12.5" style="stroke:#2E6E4E;stroke-width:0.5;" width="299.614" x="26" y="184.7018"/><text fill="#000000" font-family="sans-serif" font-size="12" lengthAdjust="spacing" textLength="100.0207" x="36" y="207.5299">Enviar calificaci&#243;n</text><text fill="#000000" font-family="sans-serif" font-size="12" lengthAdjust="spacing" textLength="279.614" x="36" y="223.874">(rating 1 a 5, comentario, transaction_id, objetivo)</text><rect fill="#EFF7F0" height="52.6882" rx="12.5" ry="12.5" style="stroke:#2E6E4E;stroke-width:0.5;" width="195.7772" x="77.9184" y="977.5673"/><text fill="#000000" font-family="sans-serif" font-size="12" lengthAdjust="spacing" textLength="173.4852" x="87.9184" y="1000.3954">Reportar publicaci&#243;n o usuario</text><text fill="#000000" font-family="sans-serif" font-size="12" lengthAdjust="spacing" textLength="175.7772" x="87.9184" y="1016.7395">(motivo de 10 a 500 caracteres)</text><line style="stroke:#2E6E4E;stroke-width:1.5;" x1="20" x2="20" y1="58.8419" y2="1482.3202"/><rect fill="#FDFDFD" height="1423.4783" style="stroke:#FDFDFD;stroke-width:1;" width="668.4684" x="329.614" y="58.8419"/><rect fill="#EFF7F0" height="36.3441" rx="12.5" ry="12.5" style="stroke:#2E6E4E;stroke-width:0.5;" width="104.8526" x="612.7939" y="306.881"/><text fill="#000000" font-family="sans-serif" font-size="12" lengthAdjust="spacing" textLength="84.8526" x="622.7939" y="329.7091">Responder 403</text><ellipse cx="665.2202" cy="381.5531" fill="none" rx="11" ry="11" style="stroke:#222222;stroke-width:1;"/><ellipse cx="665.2202" cy="381.5531" fill="#222222" rx="6" ry="6" style="stroke:#222222;stroke-width:1;"/><polygon fill="#FDFDFD" points="572.8813,257.3901,757.559,257.3901,769.559,269.3901,757.559,281.3901,572.8813,281.3901,560.8813,269.3901,572.8813,257.3901" style="stroke:#2E6E4E;stroke-width:0.5;stroke-linejoin:miter;stroke-miterlimit:10;"/><text fill="#000000" font-family="sans-serif" font-size="11" lengthAdjust="spacing" textLength="15.0149" x="669.2202" y="293.149">No</text><text fill="#000000" font-family="sans-serif" font-size="11" lengthAdjust="spacing" textLength="184.6777" x="572.8813" y="273.658">&#191;El autor es parte de la transacci&#243;n?</text><text fill="#000000" font-family="sans-serif" font-size="11" lengthAdjust="spacing" textLength="8.8769" x="769.559" y="266.1671">S&#237;</text><rect fill="#EFF7F0" height="36.3441" rx="12.5" ry="12.5" style="stroke:#2E6E4E;stroke-width:0.5;" width="104.8526" x="612.7939" y="484.044"/><text fill="#000000" font-family="sans-serif" font-size="12" lengthAdjust="spacing" textLength="84.8526" x="622.7939" y="506.8721">Responder 409</text><ellipse cx="665.2202" cy="558.7161" fill="none" rx="11" ry="11" style="stroke:#222222;stroke-width:1;"/><ellipse cx="665.2202" cy="558.7161" fill="#222222" rx="6" ry="6" style="stroke:#222222;stroke-width:1;"/><polygon fill="#FDFDFD" points="578.9422,434.5531,751.4981,434.5531,763.4981,446.5531,751.4981,458.5531,578.9422,458.5531,566.9422,446.5531,578.9422,434.5531" style="stroke:#2E6E4E;stroke-width:0.5;stroke-linejoin:miter;stroke-miterlimit:10;"/><text fill="#000000" font-family="sans-serif" font-size="11" lengthAdjust="spacing" textLength="15.0149" x="669.2202" y="470.312">No</text><text fill="#000000" font-family="sans-serif" font-size="11" lengthAdjust="spacing" textLength="172.5558" x="578.9422" y="450.821">&#191;La transacci&#243;n est&#225; completada?</text><text fill="#000000" font-family="sans-serif" font-size="11" lengthAdjust="spacing" textLength="8.8769" x="763.4981" y="443.3301">S&#237;</text><rect fill="#EFF7F0" height="36.3441" rx="12.5" ry="12.5" style="stroke:#2E6E4E;stroke-width:0.5;" width="104.8526" x="612.7939" y="661.207"/><text fill="#000000" font-family="sans-serif" font-size="12" lengthAdjust="spacing" textLength="84.8526" x="622.7939" y="684.0351">Responder 400</text><ellipse cx="665.2202" cy="735.8791" fill="none" rx="11" ry="11" style="stroke:#222222;stroke-width:1;"/><ellipse cx="665.2202" cy="735.8791" fill="#222222" rx="6" ry="6" style="stroke:#222222;stroke-width:1;"/><polygon fill="#FDFDFD" points="552.1134,611.7161,778.3269,611.7161,790.3269,623.7161,778.3269,635.7161,552.1134,635.7161,540.1134,623.7161,552.1134,611.7161" style="stroke:#2E6E4E;stroke-width:0.5;stroke-linejoin:miter;stroke-miterlimit:10;"/><text fill="#000000" font-family="sans-serif" font-size="11" lengthAdjust="spacing" textLength="15.0149" x="669.2202" y="647.475">No</text><text fill="#000000" font-family="sans-serif" font-size="11" lengthAdjust="spacing" textLength="226.2134" x="552.1134" y="627.984">&#191;Rating entre 1 y 5 y objetivo = contraparte?</text><text fill="#000000" font-family="sans-serif" font-size="11" lengthAdjust="spacing" textLength="8.8769" x="790.3269" y="620.4931">S&#237;</text><polygon fill="#FDFDFD" points="591.4216,788.8791,739.0187,788.8791,751.0187,800.8791,739.0187,812.8791,591.4216,812.8791,579.4216,800.8791,591.4216,788.8791" style="stroke:#2E6E4E;stroke-width:0.5;stroke-linejoin:miter;stroke-miterlimit:10;"/><text fill="#000000" font-family="sans-serif" font-size="11" lengthAdjust="spacing" textLength="147.597" x="591.4216" y="805.147">&#191;Ya calific&#243; esta transacci&#243;n?</text><text fill="#000000" font-family="sans-serif" font-size="11" lengthAdjust="spacing" textLength="8.8769" x="570.5447" y="797.6561">S&#237;</text><text fill="#000000" font-family="sans-serif" font-size="11" lengthAdjust="spacing" textLength="15.0149" x="751.0187" y="797.6561">No</text><rect fill="#EFF7F0" height="36.3441" rx="12.5" ry="12.5" style="stroke:#2E6E4E;stroke-width:0.5;" width="235.1975" x="406.8946" y="822.8791"/><text fill="#000000" font-family="sans-serif" font-size="12" lengthAdjust="spacing" textLength="215.1975" x="416.8946" y="845.7072">Responder 409 (calificaci&#243;n duplicada)</text><ellipse cx="524.4933" cy="890.2232" fill="none" rx="11" ry="11" style="stroke:#222222;stroke-width:1;"/><ellipse cx="524.4933" cy="890.2232" fill="#222222" rx="6" ry="6" style="stroke:#222222;stroke-width:1;"/><rect fill="#EFF7F0" height="36.3441" rx="12.5" ry="12.5" style="stroke:#2E6E4E;stroke-width:0.5;" width="287.7099" x="662.0921" y="822.8791"/><text fill="#000000" font-family="sans-serif" font-size="12" lengthAdjust="spacing" textLength="267.7099" x="672.0921" y="845.7072">Registrar la calificaci&#243;n y actualizar el promedio</text><rect fill="#EFF7F0" height="36.3441" rx="12.5" ry="12.5" style="stroke:#2E6E4E;stroke-width:0.5;" width="282.9938" x="523.7232" y="921.2232"/><text fill="#000000" font-family="sans-serif" font-size="12" lengthAdjust="spacing" textLength="262.9938" x="533.7232" y="944.0513">La contraparte puede calificar de forma mutua</text><polygon fill="#FDFDFD" points="554.7424,1050.2555,775.6979,1050.2555,787.6979,1062.2555,775.6979,1074.2555,554.7424,1074.2555,542.7424,1062.2555,554.7424,1050.2555" style="stroke:#2E6E4E;stroke-width:0.5;stroke-linejoin:miter;stroke-miterlimit:10;"/><text fill="#000000" font-family="sans-serif" font-size="11" lengthAdjust="spacing" textLength="220.9555" x="554.7424" y="1066.5235">&#191;Tipo de objetivo v&#225;lido y sin auto-reporte?</text><text fill="#000000" font-family="sans-serif" font-size="11" lengthAdjust="spacing" textLength="15.0149" x="527.7275" y="1059.0326">No</text><text fill="#000000" font-family="sans-serif" font-size="11" lengthAdjust="spacing" textLength="8.8769" x="787.6979" y="1059.0326">S&#237;</text><rect fill="#EFF7F0" height="36.3441" rx="12.5" ry="12.5" style="stroke:#2E6E4E;stroke-width:0.5;" width="104.8526" x="480.3161" y="1084.2555"/><text fill="#000000" font-family="sans-serif" font-size="12" lengthAdjust="spacing" textLength="84.8526" x="490.3161" y="1107.0836">Responder 400</text><ellipse cx="532.7424" cy="1151.5996" fill="none" rx="11" ry="11" style="stroke:#222222;stroke-width:1;"/><ellipse cx="532.7424" cy="1151.5996" fill="#222222" rx="6" ry="6" style="stroke:#222222;stroke-width:1;"/><rect fill="#EFF7F0" height="36.3441" rx="12.5" ry="12.5" style="stroke:#2E6E4E;stroke-width:0.5;" width="234.5255" x="680.4351" y="1084.2555"/><text fill="#000000" font-family="sans-serif" font-size="12" lengthAdjust="spacing" textLength="214.5255" x="690.4351" y="1107.0836">Registrar el reporte (status = pending)</text><rect fill="#EFF7F0" height="36.3441" rx="12.5" ry="12.5" style="stroke:#2E6E4E;stroke-width:0.5;" width="219.5494" x="687.9232" y="1140.5996"/><text fill="#000000" font-family="sans-serif" font-size="12" lengthAdjust="spacing" textLength="199.5494" x="697.9232" y="1163.4277">Registrar auditor&#237;a (report_created)</text><rect fill="#EFF7F0" height="36.3441" rx="12.5" ry="12.5" style="stroke:#2E6E4E;stroke-width:0.5;" width="279.4538" x="355.8761" y="1297.2879"/><text fill="#000000" font-family="sans-serif" font-size="12" lengthAdjust="spacing" textLength="259.4538" x="365.8761" y="1320.116">Suspender al usuario o eliminar la publicaci&#243;n</text><rect fill="#EFF7F0" height="52.6882" rx="12.5" ry="12.5" style="stroke:#2E6E4E;stroke-width:0.5;" width="319.9782" x="335.614" y="1353.632"/><text fill="#000000" font-family="sans-serif" font-size="12" lengthAdjust="spacing" textLength="105.5527" x="345.614" y="1376.4601">Registrar auditor&#237;a</text><text fill="#000000" font-family="sans-serif" font-size="12" lengthAdjust="spacing" textLength="299.9782" x="345.614" y="1392.8042">(report_approved, user_suspended, offering_deleted)</text><rect fill="#EFF7F0" height="36.3441" rx="12.5" ry="12.5" style="stroke:#2E6E4E;stroke-width:0.5;" width="318.4902" x="675.5922" y="1297.2879"/><text fill="#000000" font-family="sans-serif" font-size="12" lengthAdjust="spacing" textLength="298.4902" x="685.5922" y="1320.116">Marcar el reporte como rechazado (status = rejected)</text><rect fill="#EFF7F0" height="36.3441" rx="12.5" ry="12.5" style="stroke:#2E6E4E;stroke-width:0.5;" width="222.6815" x="723.4965" y="1353.632"/><text fill="#000000" font-family="sans-serif" font-size="12" lengthAdjust="spacing" textLength="202.6815" x="733.4965" y="1376.4601">Registrar auditor&#237;a (report_rejected)</text><ellipse cx="665.2202" cy="1471.3202" fill="none" rx="11" ry="11" style="stroke:#222222;stroke-width:1;"/><ellipse cx="665.2202" cy="1471.3202" fill="#222222" rx="6" ry="6" style="stroke:#222222;stroke-width:1;"/><line style="stroke:#2E6E4E;stroke-width:1.5;" x1="329.614" x2="329.614" y1="58.8419" y2="1482.3202"/><rect fill="#EFF7F0" height="1423.4783" style="stroke:#EFF7F0;stroke-width:1;" width="200.9892" x="998.0823" y="58.8419"/><rect fill="#EFF7F0" height="36.3441" rx="12.5" ry="12.5" style="stroke:#2E6E4E;stroke-width:0.5;" width="190.9892" x="1004.0823" y="1196.9438"/><text fill="#000000" font-family="sans-serif" font-size="12" lengthAdjust="spacing" textLength="170.9892" x="1014.0823" y="1219.7719">Revisar la bandeja de reportes</text><polygon fill="#FDFDFD" points="1045.8423,1253.2879,1153.3116,1253.2879,1165.3116,1265.2879,1153.3116,1277.2879,1045.8423,1277.2879,1033.8423,1265.2879,1045.8423,1253.2879" style="stroke:#2E6E4E;stroke-width:0.5;stroke-linejoin:miter;stroke-miterlimit:10;"/><text fill="#000000" font-family="sans-serif" font-size="11" lengthAdjust="spacing" textLength="107.4692" x="1045.8423" y="1269.5558">&#191;Aprueba el reporte?</text><text fill="#000000" font-family="sans-serif" font-size="11" lengthAdjust="spacing" textLength="8.8769" x="1024.9654" y="1262.0649">S&#237;</text><text fill="#000000" font-family="sans-serif" font-size="11" lengthAdjust="spacing" textLength="15.0149" x="1165.3116" y="1262.0649">No</text><polygon fill="#FDFDFD" points="1099.577,1416.3202,1111.577,1428.3202,1099.577,1440.3202,1087.577,1428.3202,1099.577,1416.3202" style="stroke:#2E6E4E;stroke-width:0.5;stroke-linejoin:miter;stroke-miterlimit:10;"/><line style="stroke:#2E6E4E;stroke-width:1.5;" x1="998.0823" x2="998.0823" y1="58.8419" y2="1482.3202"/><line style="stroke:#2E6E4E;stroke-width:1.5;" x1="1199.0716" x2="1199.0716" y1="58.8419" y2="1482.3202"/><line style="stroke:#2E6E4E;stroke-width:1;" x1="175.807" x2="175.807" y1="108.3577" y2="128.3577"/><polygon fill="#2E6E4E" points="171.807,118.3577,175.807,128.3577,179.807,118.3577,175.807,122.3577" style="stroke:#2E6E4E;stroke-width:1;stroke-linejoin:miter;stroke-miterlimit:10;"/><line style="stroke:#2E6E4E;stroke-width:1;" x1="175.807" x2="175.807" y1="164.7018" y2="184.7018"/><polygon fill="#2E6E4E" points="171.807,174.7018,175.807,184.7018,179.807,174.7018,175.807,178.7018" style="stroke:#2E6E4E;stroke-width:1;stroke-linejoin:miter;stroke-miterlimit:10;"/><line style="stroke:#2E6E4E;stroke-width:1;" x1="665.2202" x2="665.2202" y1="343.2251" y2="370.5531"/><polygon fill="#2E6E4E" points="661.2202,360.5531,665.2202,370.5531,669.2202,360.5531,665.2202,364.5531" style="stroke:#2E6E4E;stroke-width:1;stroke-linejoin:miter;stroke-miterlimit:10;"/><line style="stroke:#2E6E4E;stroke-width:1;" x1="665.2202" x2="665.2202" y1="281.3901" y2="306.881"/><polygon fill="#2E6E4E" points="661.2202,296.881,665.2202,306.881,669.2202,296.881,665.2202,300.881" style="stroke:#2E6E4E;stroke-width:1;stroke-linejoin:miter;stroke-miterlimit:10;"/><line style="stroke:#2E6E4E;stroke-width:1;" x1="769.559" x2="781.559" y1="269.3901" y2="269.3901"/><polygon fill="#2E6E4E" points="777.559,340.5531,781.559,350.5531,785.559,340.5531,781.559,344.5531" style="stroke:#2E6E4E;stroke-width:1;stroke-linejoin:miter;stroke-miterlimit:10;"/><line style="stroke:#2E6E4E;stroke-width:1;" x1="781.559" x2="781.559" y1="269.3901" y2="414.5531"/><line style="stroke:#2E6E4E;stroke-width:1;" x1="781.559" x2="665.2202" y1="414.5531" y2="414.5531"/><line style="stroke:#2E6E4E;stroke-width:1;" x1="665.2202" x2="665.2202" y1="414.5531" y2="434.5531"/><polygon fill="#2E6E4E" points="661.2202,424.5531,665.2202,434.5531,669.2202,424.5531,665.2202,428.5531" style="stroke:#2E6E4E;stroke-width:1;stroke-linejoin:miter;stroke-miterlimit:10;"/><line style="stroke:#2E6E4E;stroke-width:1;" x1="665.2202" x2="665.2202" y1="520.3881" y2="547.7161"/><polygon fill="#2E6E4E" points="661.2202,537.7161,665.2202,547.7161,669.2202,537.7161,665.2202,541.7161" style="stroke:#2E6E4E;stroke-width:1;stroke-linejoin:miter;stroke-miterlimit:10;"/><line style="stroke:#2E6E4E;stroke-width:1;" x1="665.2202" x2="665.2202" y1="458.5531" y2="484.044"/><polygon fill="#2E6E4E" points="661.2202,474.044,665.2202,484.044,669.2202,474.044,665.2202,478.044" style="stroke:#2E6E4E;stroke-width:1;stroke-linejoin:miter;stroke-miterlimit:10;"/><line style="stroke:#2E6E4E;stroke-width:1;" x1="763.4981" x2="775.4981" y1="446.5531" y2="446.5531"/><polygon fill="#2E6E4E" points="771.4981,517.7161,775.4981,527.7161,779.4981,517.7161,775.4981,521.7161" style="stroke:#2E6E4E;stroke-width:1;stroke-linejoin:miter;stroke-miterlimit:10;"/><line style="stroke:#2E6E4E;stroke-width:1;" x1="775.4981" x2="775.4981" y1="446.5531" y2="591.7161"/><line style="stroke:#2E6E4E;stroke-width:1;" x1="775.4981" x2="665.2202" y1="591.7161" y2="591.7161"/><line style="stroke:#2E6E4E;stroke-width:1;" x1="665.2202" x2="665.2202" y1="591.7161" y2="611.7161"/><polygon fill="#2E6E4E" points="661.2202,601.7161,665.2202,611.7161,669.2202,601.7161,665.2202,605.7161" style="stroke:#2E6E4E;stroke-width:1;stroke-linejoin:miter;stroke-miterlimit:10;"/><line style="stroke:#2E6E4E;stroke-width:1;" x1="665.2202" x2="665.2202" y1="697.5511" y2="724.8791"/><polygon fill="#2E6E4E" points="661.2202,714.8791,665.2202,724.8791,669.2202,714.8791,665.2202,718.8791" style="stroke:#2E6E4E;stroke-width:1;stroke-linejoin:miter;stroke-miterlimit:10;"/><line style="stroke:#2E6E4E;stroke-width:1;" x1="665.2202" x2="665.2202" y1="635.7161" y2="661.207"/><polygon fill="#2E6E4E" points="661.2202,651.207,665.2202,661.207,669.2202,651.207,665.2202,655.207" style="stroke:#2E6E4E;stroke-width:1;stroke-linejoin:miter;stroke-miterlimit:10;"/><line style="stroke:#2E6E4E;stroke-width:1;" x1="790.3269" x2="802.3269" y1="623.7161" y2="623.7161"/><polygon fill="#2E6E4E" points="798.3269,694.8791,802.3269,704.8791,806.3269,694.8791,802.3269,698.8791" style="stroke:#2E6E4E;stroke-width:1;stroke-linejoin:miter;stroke-miterlimit:10;"/><line style="stroke:#2E6E4E;stroke-width:1;" x1="802.3269" x2="802.3269" y1="623.7161" y2="768.8791"/><line style="stroke:#2E6E4E;stroke-width:1;" x1="802.3269" x2="665.2202" y1="768.8791" y2="768.8791"/><line style="stroke:#2E6E4E;stroke-width:1;" x1="665.2202" x2="665.2202" y1="768.8791" y2="788.8791"/><polygon fill="#2E6E4E" points="661.2202,778.8791,665.2202,788.8791,669.2202,778.8791,665.2202,782.8791" style="stroke:#2E6E4E;stroke-width:1;stroke-linejoin:miter;stroke-miterlimit:10;"/><line style="stroke:#2E6E4E;stroke-width:1;" x1="524.4933" x2="524.4933" y1="859.2232" y2="879.2232"/><polygon fill="#2E6E4E" points="520.4933,869.2232,524.4933,879.2232,528.4933,869.2232,524.4933,873.2232" style="stroke:#2E6E4E;stroke-width:1;stroke-linejoin:miter;stroke-miterlimit:10;"/><line style="stroke:#2E6E4E;stroke-width:1;" x1="579.4216" x2="524.4933" y1="800.8791" y2="800.8791"/><line style="stroke:#2E6E4E;stroke-width:1;" x1="524.4933" x2="524.4933" y1="800.8791" y2="822.8791"/><polygon fill="#2E6E4E" points="520.4933,812.8791,524.4933,822.8791,528.4933,812.8791,524.4933,816.8791" style="stroke:#2E6E4E;stroke-width:1;stroke-linejoin:miter;stroke-miterlimit:10;"/><line style="stroke:#2E6E4E;stroke-width:1;" x1="751.0187" x2="805.947" y1="800.8791" y2="800.8791"/><line style="stroke:#2E6E4E;stroke-width:1;" x1="805.947" x2="805.947" y1="800.8791" y2="822.8791"/><polygon fill="#2E6E4E" points="801.947,812.8791,805.947,822.8791,809.947,812.8791,805.947,816.8791" style="stroke:#2E6E4E;stroke-width:1;stroke-linejoin:miter;stroke-miterlimit:10;"/><line style="stroke:#2E6E4E;stroke-width:1;" x1="805.947" x2="805.947" y1="859.2232" y2="906.2232"/><line style="stroke:#2E6E4E;stroke-width:1;" x1="805.947" x2="665.2202" y1="906.2232" y2="906.2232"/><line style="stroke:#2E6E4E;stroke-width:1;" x1="665.2202" x2="665.2202" y1="906.2232" y2="921.2232"/><polygon fill="#2E6E4E" points="661.2202,911.2232,665.2202,921.2232,669.2202,911.2232,665.2202,915.2232" style="stroke:#2E6E4E;stroke-width:1;stroke-linejoin:miter;stroke-miterlimit:10;"/><line style="stroke:#2E6E4E;stroke-width:1;" x1="532.7424" x2="532.7424" y1="1120.5996" y2="1140.5996"/><polygon fill="#2E6E4E" points="528.7424,1130.5996,532.7424,1140.5996,536.7424,1130.5996,532.7424,1134.5996" style="stroke:#2E6E4E;stroke-width:1;stroke-linejoin:miter;stroke-miterlimit:10;"/><line style="stroke:#2E6E4E;stroke-width:1;" x1="797.6979" x2="797.6979" y1="1120.5996" y2="1140.5996"/><polygon fill="#2E6E4E" points="793.6979,1130.5996,797.6979,1140.5996,801.6979,1130.5996,797.6979,1134.5996" style="stroke:#2E6E4E;stroke-width:1;stroke-linejoin:miter;stroke-miterlimit:10;"/><line style="stroke:#2E6E4E;stroke-width:1;" x1="542.7424" x2="532.7424" y1="1062.2555" y2="1062.2555"/><line style="stroke:#2E6E4E;stroke-width:1;" x1="532.7424" x2="532.7424" y1="1062.2555" y2="1084.2555"/><polygon fill="#2E6E4E" points="528.7424,1074.2555,532.7424,1084.2555,536.7424,1074.2555,532.7424,1078.2555" style="stroke:#2E6E4E;stroke-width:1;stroke-linejoin:miter;stroke-miterlimit:10;"/><line style="stroke:#2E6E4E;stroke-width:1;" x1="787.6979" x2="797.6979" y1="1062.2555" y2="1062.2555"/><line style="stroke:#2E6E4E;stroke-width:1;" x1="797.6979" x2="797.6979" y1="1062.2555" y2="1084.2555"/><polygon fill="#2E6E4E" points="793.6979,1074.2555,797.6979,1084.2555,801.6979,1074.2555,797.6979,1078.2555" style="stroke:#2E6E4E;stroke-width:1;stroke-linejoin:miter;stroke-miterlimit:10;"/><line style="stroke:#2E6E4E;stroke-width:1;" x1="797.6979" x2="797.6979" y1="1176.9438" y2="1181.9438"/><line style="stroke:#2E6E4E;stroke-width:1;" x1="797.6979" x2="1099.577" y1="1181.9438" y2="1181.9438"/><line style="stroke:#2E6E4E;stroke-width:1;" x1="1099.577" x2="1099.577" y1="1181.9438" y2="1196.9438"/><polygon fill="#2E6E4E" points="1095.577,1186.9438,1099.577,1196.9438,1103.577,1186.9438,1099.577,1190.9438" style="stroke:#2E6E4E;stroke-width:1;stroke-linejoin:miter;stroke-miterlimit:10;"/><line style="stroke:#2E6E4E;stroke-width:1;" x1="495.6031" x2="495.6031" y1="1333.632" y2="1353.632"/><polygon fill="#2E6E4E" points="491.6031,1343.632,495.6031,1353.632,499.6031,1343.632,495.6031,1347.632" style="stroke:#2E6E4E;stroke-width:1;stroke-linejoin:miter;stroke-miterlimit:10;"/><line style="stroke:#2E6E4E;stroke-width:1;" x1="834.8372" x2="834.8372" y1="1333.632" y2="1353.632"/><polygon fill="#2E6E4E" points="830.8372,1343.632,834.8372,1353.632,838.8372,1343.632,834.8372,1347.632" style="stroke:#2E6E4E;stroke-width:1;stroke-linejoin:miter;stroke-miterlimit:10;"/><line style="stroke:#2E6E4E;stroke-width:1;" x1="1099.577" x2="1099.577" y1="1233.2879" y2="1253.2879"/><polygon fill="#2E6E4E" points="1095.577,1243.2879,1099.577,1253.2879,1103.577,1243.2879,1099.577,1247.2879" style="stroke:#2E6E4E;stroke-width:1;stroke-linejoin:miter;stroke-miterlimit:10;"/><line style="stroke:#2E6E4E;stroke-width:1;" x1="175.807" x2="175.807" y1="237.3901" y2="242.3901"/><line style="stroke:#2E6E4E;stroke-width:1;" x1="175.807" x2="665.2202" y1="242.3901" y2="242.3901"/><line style="stroke:#2E6E4E;stroke-width:1;" x1="665.2202" x2="665.2202" y1="242.3901" y2="257.3901"/><polygon fill="#2E6E4E" points="661.2202,247.3901,665.2202,257.3901,669.2202,247.3901,665.2202,251.3901" style="stroke:#2E6E4E;stroke-width:1;stroke-linejoin:miter;stroke-miterlimit:10;"/><line style="stroke:#2E6E4E;stroke-width:1;" x1="665.2202" x2="665.2202" y1="957.5673" y2="962.5673"/><line style="stroke:#2E6E4E;stroke-width:1;" x1="665.2202" x2="175.807" y1="962.5673" y2="962.5673"/><line style="stroke:#2E6E4E;stroke-width:1;" x1="175.807" x2="175.807" y1="962.5673" y2="977.5673"/><polygon fill="#2E6E4E" points="171.807,967.5673,175.807,977.5673,179.807,967.5673,175.807,971.5673" style="stroke:#2E6E4E;stroke-width:1;stroke-linejoin:miter;stroke-miterlimit:10;"/><line style="stroke:#2E6E4E;stroke-width:1;" x1="175.807" x2="175.807" y1="1030.2555" y2="1035.2555"/><line style="stroke:#2E6E4E;stroke-width:1;" x1="175.807" x2="665.2202" y1="1035.2555" y2="1035.2555"/><line style="stroke:#2E6E4E;stroke-width:1;" x1="665.2202" x2="665.2202" y1="1035.2555" y2="1050.2555"/><polygon fill="#2E6E4E" points="661.2202,1040.2555,665.2202,1050.2555,669.2202,1040.2555,665.2202,1044.2555" style="stroke:#2E6E4E;stroke-width:1;stroke-linejoin:miter;stroke-miterlimit:10;"/><line style="stroke:#2E6E4E;stroke-width:1;" x1="1033.8423" x2="495.6031" y1="1265.2879" y2="1265.2879"/><line style="stroke:#2E6E4E;stroke-width:1;" x1="495.6031" x2="495.6031" y1="1265.2879" y2="1297.2879"/><polygon fill="#2E6E4E" points="491.6031,1287.2879,495.6031,1297.2879,499.6031,1287.2879,495.6031,1291.2879" style="stroke:#2E6E4E;stroke-width:1;stroke-linejoin:miter;stroke-miterlimit:10;"/><line style="stroke:#2E6E4E;stroke-width:1;" x1="1165.3116" x2="1177.3116" y1="1265.2879" y2="1265.2879"/><line style="stroke:#2E6E4E;stroke-width:1;" x1="1177.3116" x2="1177.3116" y1="1265.2879" y2="1283.2879"/><line style="stroke:#2E6E4E;stroke-width:1;" x1="1177.3116" x2="834.8372" y1="1283.2879" y2="1283.2879"/><line style="stroke:#2E6E4E;stroke-width:1;" x1="834.8372" x2="834.8372" y1="1283.2879" y2="1297.2879"/><polygon fill="#2E6E4E" points="830.8372,1287.2879,834.8372,1297.2879,838.8372,1287.2879,834.8372,1291.2879" style="stroke:#2E6E4E;stroke-width:1;stroke-linejoin:miter;stroke-miterlimit:10;"/><line style="stroke:#2E6E4E;stroke-width:1;" x1="495.6031" x2="495.6031" y1="1406.3202" y2="1428.3202"/><line style="stroke:#2E6E4E;stroke-width:1;" x1="495.6031" x2="1087.577" y1="1428.3202" y2="1428.3202"/><polygon fill="#2E6E4E" points="1077.577,1424.3202,1087.577,1428.3202,1077.577,1432.3202,1081.577,1428.3202" style="stroke:#2E6E4E;stroke-width:1;stroke-linejoin:miter;stroke-miterlimit:10;"/><line style="stroke:#2E6E4E;stroke-width:1;" x1="834.8372" x2="834.8372" y1="1389.9761" y2="1410.3202"/><line style="stroke:#2E6E4E;stroke-width:1;" x1="834.8372" x2="1129.577" y1="1410.3202" y2="1410.3202"/><line style="stroke:#2E6E4E;stroke-width:1;" x1="1129.577" x2="1129.577" y1="1410.3202" y2="1428.3202"/><line style="stroke:#2E6E4E;stroke-width:1;" x1="1129.577" x2="1111.577" y1="1428.3202" y2="1428.3202"/><polygon fill="#2E6E4E" points="1121.577,1424.3202,1111.577,1428.3202,1121.577,1432.3202,1117.577,1428.3202" style="stroke:#2E6E4E;stroke-width:1;stroke-linejoin:miter;stroke-miterlimit:10;"/><line style="stroke:#2E6E4E;stroke-width:1;" x1="1099.577" x2="1099.577" y1="1440.3202" y2="1445.3202"/><line style="stroke:#2E6E4E;stroke-width:1;" x1="1099.577" x2="665.2202" y1="1445.3202" y2="1445.3202"/><line style="stroke:#2E6E4E;stroke-width:1;" x1="665.2202" x2="665.2202" y1="1445.3202" y2="1460.3202"/><polygon fill="#2E6E4E" points="661.2202,1450.3202,665.2202,1460.3202,669.2202,1450.3202,665.2202,1454.3202" style="stroke:#2E6E4E;stroke-width:1;stroke-linejoin:miter;stroke-miterlimit:10;"/><text fill="#000000" font-family="sans-serif" font-size="18" lengthAdjust="spacing" textLength="199.8168" x="74.8986" y="78.0838">Comprador o agricultor</text><text fill="#000000" font-family="sans-serif" font-size="18" lengthAdjust="spacing" textLength="79.9555" x="623.8704" y="78.0838">API Milpa</text><text fill="#000000" font-family="sans-serif" font-size="18" lengthAdjust="spacing" textLength="175.2829" x="1010.9355" y="78.0838">Administrador (rol 5)</text><?plantuml-src bLJRQXin47tVhnZeYmqfE6tIKfjItCI6GbDAafT2mOnNOqU9B2swE3XrFYOVaATyGA7-iOvMkyxQZHEAySEED6VEEJCZToLrWHPdWBcNS-aNy2i3-8pvrTIQeCMHKSR2gy5m-7xOYIV62h9LzCtWtU1WmD6-jUPwEtWiSMQq-0ThU1n_ZGjFGDvcRitCNSkPGas9sPFrpwLNj8lqRURZCHoXaXEPOovN3nfcmGU41LWgZFK4kU6OOUnqdcNBAdzvP6Q5HS681d1gPHwKDtR95vAIPV_x5pYHgi3bOr9VpAIMpgV4bZKA3jjBHjs5vZnQdtNFBMg7UUAOyrr57WL2YyzzSF2n3f9ezxBkGCybMiYRqdxgbaKlzHJs0U5mBsQGPdXfzi0dV2-D7acn1sPyITnums1D7N82hJ-_1memC3iW1zmBTaaGAAn1ocgVsk0lI4Fhcsbp9xgdv0fkAbauwBpjSSHvKsIa747hR7NVpaWBEQaAVDt4uZf-TTUG_HpuXvV0JvC9BDqIMx60G_xNUaiZ-GHBNS_LwRnKvmVM_gyUee8T_fHvsngWjT4w4A5G_26mlLLrJMnQ3fMDRTXCNSGL3XowuLDIK5Xkkv2cLv7jijaDoL04ucxM63QsTcBi3DDcz9uPLMOHTuPpYZ1MQm86WWjnodW0PwOqcJ7tEt48EnsknAlboP9xSjREPL7UNpTelhfJKXZMvQGkv_1rjQl_tQqDuzYQUkSVbwg87kbfwNhZBWOXMVBgdXSm9OroIvYMBzcQxLfrXfbBbperHgPtYL5VLTlrAjtzmWOQOuFMziGqlM9sPy55jgmMLUquUqzACerKhjcMdOhYCv4aOS6pCYT-3O8ZEt9LWVWwJ2PasPUHeFh9QOxZ5hCJjFccmRp9XZ_o2xnXSnf-MxgaF06-P7ZZQd8yTlSl?></g></svg>